<?xml version="1.0" standalone="no"?>
<!DOCTYPE svg PUBLIC "-//W3C//DTD SVG 20010904//EN"
 "http://www.w3.org/TR/2001/REC-SVG-20010904/DTD/svg10.dtd">
<svg version="1.0" xmlns="http://www.w3.org/2000/svg"
 width="640.000000pt" height="320.000000pt" viewBox="0 0 640.000000 320.000000"
 preserveAspectRatio="xMidYMid meet">

<g transform="translate(0.000000,320.000000) scale(0.100000,-0.100000)"
fill="#000000" stroke="none">
<path d="M1306 3140 c-325 -41 -624 -188 -856 -421 -273 -275 -425 -628 -446
-1044 -25 -480 178 -974 518 -1263 350 -296 782 -414 1208 -331 411 81 780
370 1002 786 23 43 43 80 44 82 2 2 70 -35 151 -81 248 -142 258 -146 320
-108 63 38 68 61 66 293 l-2 208 178 -3 178 -3 127 -120 c70 -66 138 -127 151
-135 24 -15 27 -13 204 164 l178 178 159 -151 158 -151 135 0 135 0 165 164
166 164 110 -94 110 -94 101 0 c56 0 135 3 178 6 l76 7 148 141 c81 78 208
197 282 266 74 68 139 132 144 141 13 26 -44 139 -100 199 -57 61 -146 121
-273 185 l-95 47 -1314 -11 c-723 -6 -1316 -10 -1318 -8 -2 1 -7 71 -13 155
-9 144 -11 155 -36 188 -46 60 -135 82 -208 50 -18 -8 -90 -62 -162 -121 -96
-80 -132 -104 -137 -94 -123 213 -185 295 -317 422 -198 190 -452 323 -709
373 -95 18 -313 26 -406 14z m380 -85 c398 -70 762 -347 976 -742 32 -60 56
-93 66 -93 10 0 88 58 175 129 86 71 169 132 183 135 34 9 86 -9 101 -33 7
-11 17 -93 23 -187 6 -93 15 -173 20 -178 6 -6 508 -5 1342 1 l1333 10 90 -45
c164 -82 249 -149 303 -241 l26 -44 -40 -33 -39 -34 -209 0 c-601 0 -3422 -42
-3430 -50 -6 -6 -6 -13 0 -19 5 -5 99 -37 209 -72 l200 -62 1245 17 c685 9
1373 19 1530 23 l285 6 -145 -140 -145 -140 -142 -7 -142 -7 -126 105 c-69 58
-130 106 -137 106 -6 0 -89 -77 -183 -170 l-171 -170 -108 0 -108 0 -159 153
c-93 88 -170 153 -183 155 -18 2 -58 -33 -193 -172 l-170 -175 -132 123 -131
123 -217 6 c-148 4 -221 2 -230 -5 -10 -8 -13 -65 -13 -237 0 -248 -5 -271
-56 -271 -14 0 -111 50 -216 110 -105 61 -201 110 -213 110 -18 0 -31 -18 -68
-95 -253 -523 -743 -835 -1277 -812 -257 11 -479 84 -700 232 -307 204 -514
518 -603 913 -18 84 -21 128 -21 322 0 248 10 321 74 513 130 387 426 707 796
858 84 34 257 83 329 92 82 11 319 6 401 -8z m4534 -1390 c0 -2 -25 -23 -55
-45 l-56 -41 -1537 -23 -1537 -24 -137 42 c-76 22 -138 43 -138 46 0 4 159 7
353 9 350 3 2940 37 3050 40 31 0 57 -1 57 -4z"/>
<path d="M713 1996 c-221 -72 -321 -312 -217 -518 88 -174 315 -244 487 -150
68 36 141 120 167 190 32 83 25 215 -14 290 -36 72 -105 138 -174 170 -68 31
-184 40 -249 18z m213 -86 c57 -25 111 -75 142 -134 35 -67 38 -177 6 -247
-26 -55 -79 -111 -137 -141 -59 -32 -184 -32 -243 -1 -65 34 -103 71 -131 126
-89 178 18 390 212 417 60 8 96 3 151 -20z"/>
</g>
</svg>
