<?xml version="1.0" encoding="UTF-8" standalone="no"?><!DOCTYPE svg PUBLIC "-//W3C//DTD SVG 1.1//EN" "http://www.w3.org/Graphics/SVG/1.1/DTD/svg11.dtd"><svg width="100%" height="100%" viewBox="0 0 1042 500" version="1.1" xmlns="http://www.w3.org/2000/svg" xmlns:xlink="http://www.w3.org/1999/xlink" xml:space="preserve" xmlns:serif="http://www.serif.com/" style="fill-rule:evenodd;clip-rule:evenodd;stroke-linejoin:round;stroke-miterlimit:2;"><g><g><path d="M573.82,124.207l364.259,0c10.465,0 19.03,8.559 19.03,19.029l0,213.528c0,10.47 -8.565,19.029 -19.03,19.029l-364.259,0c-10.465,0 -19.025,-8.559 -19.025,-19.029l0,-213.528c0,-10.47 8.56,-19.029 19.025,-19.029Z" style="fill:#f8981e;"/><g id="hub"><path d="M823.94,320.29l0.095,-152.492l29.49,0l-1.616,48.669c7.716,-6.06 20.551,-9.512 32.103,-9.512c13.279,0.803 24.956,5.197 33.122,13.203c10.061,9.857 15.119,25.021 14.984,43.522c0,11.647 -1.741,23.833 -6.854,33.924c-7.522,14.845 -22.805,25.46 -39.98,25.46c-13.991,0 -26.207,-4.529 -33.979,-11.318l0,8.544l-27.365,0Zm29.166,-57.144c0,22.552 9.328,35.93 25.31,35.93c17.328,0 23.399,-16.621 23.399,-33.466c0,-16.75 -4.539,-35.64 -24.537,-35.64c-17.453,0 -24.172,15.668 -24.172,33.176Z" style="fill:#fff;"/><path d="M689.176,320.235l-29.306,0l0,-57.024c0,-11.877 -0.623,-20.022 -1.875,-23.479c-2.639,-7.288 -8.914,-9.922 -16.162,-9.922c-11.118,0 -18.551,5.881 -21.688,15.379c-1.507,4.564 -2.265,13.443 -2.265,25.739l0,49.307l-29.305,0l0,-152.567l29.49,0l0,49.283c6.045,-5.228 17.987,-9.906 32.692,-9.906c17.498,0 32.797,8.25 36.787,25.499c1.073,4.564 1.632,11.597 1.632,20.072l0,67.619Z" style="fill:#fff;"/><path d="M705.956,209.648l29.395,0l0,56.875c0,11.877 0.623,20.018 1.875,23.479c2.634,7.288 9.348,10.071 16.132,10.071c10.794,0 19.573,-6.634 21.798,-15.378c1.502,-4.559 1.806,-13.742 1.806,-26.043l0,-49.004l29.555,0l0,110.587l-27.495,0l0,-11.846c-7.138,8.395 -19.992,14.505 -34.673,14.505c-17.852,0 -32.632,-8.006 -36.623,-25.25c-1.062,-4.564 -1.77,-11.597 -1.77,-20.072l0,-67.924Z" style="fill:#fff;"/></g></g><text x="70.05px" y="320.458px" style="font-family:'Arial-BoldMT', 'Arial', sans-serif;font-weight:700;font-size:213.448px;">M<tspan x="240.742px 388.721px " y="320.458px 320.458px ">UD</tspan></text></g></svg>